<?xml version="1.0" encoding="UTF-8" standalone="no"?>
<!DOCTYPE svg PUBLIC "-//W3C//DTD SVG 20010904//EN"
              "http://www.w3.org/TR/2001/REC-SVG-20010904/DTD/svg10.dtd">

<svg xmlns="http://www.w3.org/2000/svg"
     width="6.20833in" height="6.25in"
     viewBox="0 0 447 450">
  <path id="Sélection"
        fill="#999" stroke="#999" stroke-width="5"
        d="M 31.32,52.00
           C 27.60,44.00 25.95,34.66 34.04,28.65
             42.42,22.42 59.97,24.96 73.00,18.88
             86.37,12.64 95.69,-0.46 112.00,0.37
             137.36,1.67 139.75,20.86 167.00,21.00
             172.45,21.03 172.50,20.92 178.00,21.73
             180.39,22.08 182.74,22.27 184.91,23.45
             191.56,27.09 192.19,35.66 189.47,42.00
             185.39,51.52 172.60,61.52 166.00,73.00
             171.63,71.83 177.57,74.46 174.85,81.00
             172.40,86.88 163.89,91.91 161.64,95.28
             160.06,97.65 160.62,99.41 161.00,102.00
             165.13,99.04 172.09,90.41 176.94,91.84
             180.03,92.76 181.28,96.04 180.67,99.00
             179.60,104.11 172.39,109.65 168.00,112.00
             168.00,112.00 195.00,138.09 195.00,138.09
             195.00,138.09 222.91,165.04 222.91,165.04
             222.91,165.04 235.00,178.00 235.00,178.00
             235.00,178.00 267.00,125.00 267.00,125.00
             263.56,123.90 259.96,122.30 258.18,118.91
             256.31,115.34 257.83,111.08 262.02,110.42
             265.45,109.88 270.83,113.47 274.00,115.00
             274.00,115.00 275.00,111.00 275.00,111.00
             270.67,109.50 262.49,106.72 259.43,103.47
             253.68,97.37 259.43,93.23 266.00,93.00
             259.38,85.38 246.69,71.95 241.93,64.00
             239.46,59.87 236.54,52.86 237.35,48.00
             239.73,33.79 255.17,37.88 265.00,34.96
             277.27,31.31 286.53,19.13 300.00,19.18
             311.54,19.21 321.76,29.99 333.00,33.64
             340.60,36.11 356.70,33.17 360.26,42.04
             364.50,52.62 347.55,67.00 342.00,75.00
             343.45,74.59 344.43,74.20 346.00,74.17
             348.03,74.14 350.06,74.66 351.39,76.31
             355.17,81.03 347.97,87.84 344.99,91.00
             343.95,92.11 342.33,93.69 341.57,95.00
             340.20,97.36 340.63,98.51 341.00,101.00
             341.00,101.00 344.00,98.88 344.00,98.88
             344.98,98.37 345.87,98.02 346.98,97.96
             355.40,97.48 351.43,107.96 352.85,111.00
             353.87,113.16 359.07,118.12 361.00,119.96
             382.07,140.12 402.81,159.67 419.26,184.00
             432.65,203.81 446.96,236.83 447.00,261.00
             447.00,261.00 447.00,274.00 447.00,274.00
             446.97,296.44 432.97,314.42 416.00,327.79
             387.34,350.36 350.88,360.62 315.00,363.09
             315.00,363.09 304.00,364.00 304.00,364.00
             302.75,370.67 298.72,377.24 295.19,383.00
             282.78,403.25 262.89,416.83 242.00,427.25
             229.81,433.33 213.29,439.30 200.00,442.35
             142.18,455.62 59.93,455.98 20.92,403.00
             -13.39,356.39 0.33,292.81 18.95,243.00
             18.95,243.00 33.75,209.00 33.75,209.00
             33.75,209.00 51.42,175.00 51.42,175.00
             51.42,175.00 68.87,144.00 68.87,144.00
             68.87,144.00 78.00,128.00 78.00,128.00
             72.20,125.69 62.41,122.51 58.31,117.79
             53.94,112.75 58.18,108.01 62.00,107.82
             63.91,107.73 77.84,114.66 81.00,116.00
             80.17,113.75 79.63,111.42 77.69,109.84
             76.46,108.84 74.46,108.17 73.00,107.55
             67.90,105.38 53.75,98.73 62.28,91.72
             63.56,90.67 64.54,90.51 66.00,90.00
             55.11,79.11 37.66,65.63 31.32,52.00 Z
           M 146.00,29.55
           C 131.00,23.49 128.78,13.58 111.00,14.01
             99.85,14.29 91.31,22.39 82.00,27.56
             75.13,31.37 64.81,33.87 57.00,34.85
             52.87,35.36 42.34,35.77 41.64,41.11
             41.19,44.56 45.00,49.41 47.02,52.00
             47.02,52.00 65.83,73.00 65.83,73.00
             70.43,78.09 75.05,83.45 79.08,89.00
             81.00,91.65 84.19,97.41 86.52,99.10
             89.95,101.58 98.77,101.99 103.00,102.00
             103.00,102.00 111.00,102.00 111.00,102.00
             119.30,101.90 138.76,96.93 144.69,91.37
             147.44,88.78 147.78,83.65 149.09,80.00
             151.13,74.32 154.92,67.90 158.43,63.00
             158.43,63.00 177.83,39.00 177.83,39.00
             178.76,37.13 178.77,35.98 179.00,34.00
             166.30,31.73 159.07,34.83 146.00,29.55 Z
           M 324.00,43.48
           C 316.51,40.09 310.44,32.32 302.00,32.06
             293.22,31.78 287.53,38.41 280.00,42.02
             280.00,42.02 250.00,52.00 250.00,52.00
             254.34,60.85 265.24,71.16 272.00,79.00
             275.87,83.49 278.71,86.87 281.79,92.00
             282.92,93.87 285.36,98.97 286.69,100.10
             289.11,102.12 294.03,102.06 297.00,101.71
             303.60,100.95 317.73,98.07 322.71,93.87
             326.91,90.32 322.97,87.70 327.46,77.00
             332.36,65.33 342.20,58.53 347.00,48.00
             339.08,45.75 335.03,48.48 324.00,43.48 Z
           M 165.00,73.00
           C 165.00,73.00 166.00,74.00 166.00,74.00
             166.00,74.00 166.00,73.00 166.00,73.00
             166.00,73.00 165.00,73.00 165.00,73.00 Z
           M 164.00,74.00
           C 164.00,74.00 165.00,75.00 165.00,75.00
             165.00,75.00 165.00,74.00 165.00,74.00
             165.00,74.00 164.00,74.00 164.00,74.00 Z
           M 341.00,75.00
           C 341.00,75.00 342.00,76.00 342.00,76.00
             342.00,76.00 342.00,75.00 342.00,75.00
             342.00,75.00 341.00,75.00 341.00,75.00 Z
           M 339.00,78.00
           C 339.00,78.00 340.00,79.00 340.00,79.00
             340.00,79.00 340.00,78.00 340.00,78.00
             340.00,78.00 339.00,78.00 339.00,78.00 Z
           M 66.00,90.00
           C 66.00,90.00 67.00,91.00 67.00,91.00
             67.00,91.00 67.00,90.00 67.00,90.00
             67.00,90.00 66.00,90.00 66.00,90.00 Z
           M 266.00,93.00
           C 266.00,93.00 267.00,94.00 267.00,94.00
             267.00,94.00 267.00,93.00 267.00,93.00
             267.00,93.00 266.00,93.00 266.00,93.00 Z
           M 110.00,114.00
           C 110.00,114.00 91.00,113.00 91.00,113.00
             91.00,113.00 91.00,119.00 91.00,119.00
             107.38,121.16 121.18,120.94 137.00,115.67
             140.61,114.46 149.23,112.15 150.03,107.90
             150.34,106.23 149.52,104.53 149.00,103.00
             136.12,108.55 124.43,113.83 110.00,114.00 Z
           M 321.00,107.57
           C 311.51,111.62 303.30,113.25 293.00,113.30
             287.40,113.32 286.55,113.23 285.00,119.00
             302.91,124.48 317.45,118.31 333.00,110.00
             333.00,110.00 330.00,104.00 330.00,104.00
             326.21,105.08 324.49,106.08 321.00,107.57 Z
           M 143.00,125.95
           C 135.24,128.79 123.21,131.90 115.00,131.98
             115.00,131.98 98.00,131.98 98.00,131.98
             95.43,131.74 91.65,130.63 89.41,131.98
             87.89,133.00 81.16,146.40 79.78,149.00
             79.78,149.00 57.14,190.00 57.14,190.00
             35.67,228.48 16.15,275.73 12.91,320.00
             12.91,320.00 12.00,330.00 12.00,330.00
             12.00,330.00 12.00,334.00 12.00,334.00
             12.22,352.91 17.21,375.00 27.55,391.00
             48.26,423.05 94.31,437.94 131.00,438.00
             131.00,438.00 149.00,438.00 149.00,438.00
             149.00,438.00 173.00,435.42 173.00,435.42
             204.99,430.68 239.59,419.74 265.00,399.20
             274.15,391.80 280.07,384.99 286.19,375.00
             287.55,372.78 291.50,367.17 289.87,364.60
             288.69,362.73 282.29,362.77 280.00,362.41
             271.55,361.09 263.11,359.21 255.00,356.48
             230.28,348.17 209.64,329.98 203.50,304.00
             198.24,281.74 203.99,249.17 212.20,228.00
             212.20,228.00 223.31,201.00 223.31,201.00
             224.44,198.54 228.13,192.32 227.91,190.00
             227.68,187.64 225.53,185.63 223.98,184.00
             223.98,184.00 212.00,172.00 212.00,172.00
             212.00,172.00 177.00,139.00 177.00,139.00
             172.81,134.81 162.14,122.64 158.00,120.44
             153.56,120.47 147.51,124.29 143.00,125.95 Z
           M 229.14,216.00
           C 222.47,231.08 214.30,252.54 213.09,269.00
             212.20,281.07 211.45,288.83 214.47,301.00
             216.01,307.15 218.21,313.53 221.45,319.00
             242.53,354.56 292.85,355.30 329.00,349.73
             329.00,349.73 350.00,345.23 350.00,345.23
             358.57,343.15 366.83,340.09 375.00,336.80
             399.60,326.88 425.82,310.97 433.79,284.00
             435.99,276.55 436.09,269.65 436.00,262.00
             435.80,245.64 428.01,224.40 420.45,210.00
             408.00,186.28 390.88,165.88 372.00,147.00
             372.00,147.00 351.00,127.00 351.00,127.00
             348.63,124.64 344.46,119.76 341.00,119.59
             338.20,119.45 329.43,125.33 326.00,126.83
             318.22,130.23 304.47,133.29 296.00,132.96
             296.00,132.96 278.00,130.00 278.00,130.00
             261.01,158.32 242.54,185.68 229.14,216.00 Z
           M 264.25,263.03
           C 264.55,256.76 273.07,257.55 275.40,251.90
             275.77,251.01 276.89,240.13 279.09,234.00
             284.81,218.05 299.16,203.14 315.00,197.06
             321.70,194.49 328.79,192.45 336.00,192.09
             339.91,191.90 343.70,192.56 344.67,197.02
             345.24,199.63 344.42,202.28 341.85,203.40
             341.85,203.40 334.00,204.44 334.00,204.44
             329.72,205.12 323.99,206.78 320.00,208.46
             303.87,215.28 290.46,231.57 288.00,249.00
             288.00,249.00 329.00,232.02 329.00,232.02
             332.88,230.31 340.85,226.80 343.26,232.02
             346.42,239.33 337.70,241.65 333.00,243.42
             333.00,243.42 289.00,261.00 289.00,261.00
             289.00,261.00 291.00,269.00 291.00,269.00
             291.00,269.00 335.00,252.40 335.00,252.40
             338.88,250.86 347.88,246.29 351.48,249.60
             357.31,254.96 349.32,260.07 345.00,261.80
             345.00,261.80 299.00,279.00 299.00,279.00
             313.35,292.65 331.16,297.04 350.00,290.30
             357.89,287.48 360.56,284.72 367.00,279.97
             369.63,278.03 372.57,276.16 375.85,278.03
             380.50,280.67 378.75,285.73 375.85,288.91
             370.48,294.80 359.66,300.29 352.00,302.56
             337.24,306.93 317.71,305.87 304.00,298.60
             296.59,294.68 289.93,287.67 288.00,286.52
             286.51,285.64 285.72,285.42 284.00,285.71
             280.25,286.10 273.94,291.51 269.60,285.71
             268.57,284.41 268.13,282.76 268.66,281.10
             269.95,276.98 277.21,274.71 281.00,274.00
             281.00,274.00 278.00,267.00 278.00,267.00
             273.49,268.69 263.86,271.25 264.25,263.03 Z
           M 127.25,317.00
           C 126.67,313.52 124.78,300.62 123.07,298.43
             122.41,297.59 121.82,297.17 120.86,296.74
             118.09,295.49 114.41,296.77 104.00,292.38
             89.75,286.38 82.83,272.91 83.00,258.00
             83.15,245.00 89.21,236.53 100.00,229.55
             100.00,229.55 111.40,223.30 111.40,223.30
             115.07,219.38 110.30,212.44 113.02,208.37
             115.09,205.19 120.05,205.87 122.27,208.37
             124.61,211.13 124.92,217.52 125.00,221.00
             135.19,221.01 142.96,222.27 152.00,227.31
             155.68,229.37 159.60,232.13 158.53,236.98
             157.81,240.21 155.30,242.11 152.00,241.44
             152.00,241.44 142.00,236.47 142.00,236.47
             136.56,234.25 132.74,234.02 127.00,234.00
             127.00,234.00 131.73,269.00 131.73,269.00
             132.24,272.44 132.91,281.24 134.85,283.69
             137.02,286.41 143.46,286.29 147.00,287.00
             154.95,288.61 162.66,291.07 169.00,296.33
             194.75,317.66 182.84,361.06 150.00,367.00
             150.33,374.08 151.67,375.20 152.24,380.00
             152.80,384.68 150.31,388.85 145.05,387.67
             139.63,386.44 138.40,374.72 138.00,370.00
             123.61,370.00 110.44,368.36 100.18,356.99
             96.95,353.40 87.29,340.67 96.06,337.83
             103.31,335.48 105.47,345.62 111.09,350.67
             118.58,357.40 125.55,358.00 135.00,358.00
             135.00,358.00 127.25,317.00 127.25,317.00 Z
           M 103.04,241.21
           C 93.86,249.46 91.99,265.41 100.34,274.91
             105.98,281.32 113.98,283.49 122.00,285.00
             122.00,285.00 115.00,235.00 115.00,235.00
             110.51,236.57 106.67,237.95 103.04,241.21 Z
           M 168.39,340.00
           C 176.00,327.28 169.78,311.23 158.00,303.55
             151.02,299.00 144.12,298.02 136.00,298.00
             136.00,298.00 147.00,356.00 147.00,356.00
             155.85,352.40 163.29,348.52 168.39,340.00 Z" />
</svg>
